<?xml version="1.0" encoding="UTF-8"?>
<!-- emtesseract Primary Logo - Dark Background with Glitch -->
<svg viewBox="0 0 200 200" xmlns="http://www.w3.org/2000/svg">
  <rect x="0" y="0" width="200" height="200" fill="#0A0A0A" rx="16"/>
  
  <!-- Scan lines -->
  <g opacity="0.03">
    <rect x="0" y="0" width="200" height="2" fill="white"/>
    <rect x="0" y="8" width="200" height="2" fill="white"/>
    <rect x="0" y="16" width="200" height="2" fill="white"/>
    <rect x="0" y="24" width="200" height="2" fill="white"/>
    <rect x="0" y="32" width="200" height="2" fill="white"/>
    <rect x="0" y="40" width="200" height="2" fill="white"/>
    <rect x="0" y="48" width="200" height="2" fill="white"/>
    <rect x="0" y="56" width="200" height="2" fill="white"/>
    <rect x="0" y="64" width="200" height="2" fill="white"/>
    <rect x="0" y="72" width="200" height="2" fill="white"/>
    <rect x="0" y="80" width="200" height="2" fill="white"/>
    <rect x="0" y="88" width="200" height="2" fill="white"/>
    <rect x="0" y="96" width="200" height="2" fill="white"/>
  </g>
  
  <!-- Cyan offset layer -->
  <g transform="translate(4, 2)" opacity="0.6">
    <rect x="50" y="50" width="60" height="80" fill="none" stroke="#00FFFF" stroke-width="4"/>
    <rect x="65" y="65" width="55" height="55" fill="none" stroke="#00FFFF" stroke-width="3"/>
    <line x1="50" y1="50" x2="65" y2="65" stroke="#00FFFF" stroke-width="2.5"/>
    <line x1="110" y1="50" x2="120" y2="65" stroke="#00FFFF" stroke-width="2.5"/>
    <line x1="50" y1="130" x2="65" y2="120" stroke="#00FFFF" stroke-width="2.5"/>
    <line x1="110" y1="130" x2="120" y2="120" stroke="#00FFFF" stroke-width="2.5"/>
  </g>
  
  <!-- Magenta offset layer -->
  <g transform="translate(-4, -2)" opacity="0.6">
    <rect x="50" y="50" width="60" height="80" fill="none" stroke="#FF00FF" stroke-width="4"/>
    <rect x="65" y="65" width="55" height="55" fill="none" stroke="#FF00FF" stroke-width="3"/>
    <line x1="50" y1="50" x2="65" y2="65" stroke="#FF00FF" stroke-width="2.5"/>
    <line x1="110" y1="50" x2="120" y2="65" stroke="#FF00FF" stroke-width="2.5"/>
    <line x1="50" y1="130" x2="65" y2="120" stroke="#FF00FF" stroke-width="2.5"/>
    <line x1="110" y1="130" x2="120" y2="120" stroke="#FF00FF" stroke-width="2.5"/>
  </g>
  
  <!-- Main white layer -->
  <g>
    <rect x="50" y="50" width="60" height="80" fill="none" stroke="white" stroke-width="4"/>
    <rect x="65" y="65" width="55" height="55" fill="none" stroke="white" stroke-width="3"/>
    <line x1="50" y1="50" x2="65" y2="65" stroke="white" stroke-width="2.5"/>
    <line x1="110" y1="50" x2="120" y2="65" stroke="white" stroke-width="2.5"/>
    <line x1="50" y1="130" x2="65" y2="120" stroke="white" stroke-width="2.5"/>
    <line x1="110" y1="130" x2="120" y2="120" stroke="white" stroke-width="2.5"/>
    
    <!-- Vertices -->
    <circle cx="50" cy="50" r="4" fill="white"/>
    <circle cx="110" cy="50" r="4" fill="white"/>
    <circle cx="50" cy="130" r="4" fill="white"/>
    <circle cx="110" cy="130" r="4" fill="white"/>
    <circle cx="65" cy="65" r="4" fill="white"/>
    <circle cx="120" cy="65" r="4" fill="white"/>
    <circle cx="65" cy="120" r="4" fill="white"/>
    <circle cx="120" cy="120" r="4" fill="white"/>
  </g>
  
  <!-- Data text -->
  <text x="15" y="185" font-family="monospace" font-size="10" fill="#00FF00" opacity="0.5">M4_READY</text>
</svg>
